<svg xmlns="http://www.w3.org/2000/svg" viewBox="0 0 485.84 135"><defs><style>.cls-1{fill:#ffffff;}</style></defs><title>Artboard 1</title><g id="Logo"><path class="cls-1" d="M467.07,29.66,447.14,85.41,425.36,29.66H406l31.67,75.39-2.29,5q-3.58,7.75-11.18,7.75a12.84,12.84,0,0,1-4.87-.94,24.05,24.05,0,0,1-5-2.93l-8,14.18a31.65,31.65,0,0,0,9,5.23,29.23,29.23,0,0,0,10.1,1.65,26.41,26.41,0,0,0,15.84-4.8q6.66-4.8,10.24-14.26l34.4-86.28Z"/><rect class="cls-1" x="376.23" width="18.63" height="106.34"/><rect class="cls-1" x="339.11" width="18.63" height="106.34"/><path class="cls-1" d="M313.11,36.11Q304.86,29,290,29a60.2,60.2,0,0,0-17.27,2.22,84.43,84.43,0,0,0-16.41,7.24L263,51.31q11.89-7.17,22.79-7.17,8.44,0,12.9,3.73t4.44,10.46v2H280.79q-13.91.15-21.5,6.24T251.7,83.41A23.12,23.12,0,0,0,255,95.59a22.61,22.61,0,0,0,9.39,8.53,30.94,30.94,0,0,0,14.12,3.08A38,38,0,0,0,293,104.62,25,25,0,0,0,303.29,97v9.32h18.35l-.15-50.16Q321.35,43.28,313.11,36.11Zm-11,43.57q-.72,5.59-6.45,9.39a24.36,24.36,0,0,1-13.76,3.8q-6.3,0-10-2.87a9.3,9.3,0,0,1-3.65-7.74q0-5,3.51-7.24t11-2.22h19.35Z"/><path class="cls-1" d="M237.73,60.62q5.09-8.31,5.09-20.06,0-16.49-10.61-25.51T202.12,6H160.27V106.34h19.2V76.82h22.65a30.62,30.62,0,0,0,3.58-.15L223,106.34H245L222.9,73.09A31.12,31.12,0,0,0,237.73,60.62Zm-19-5.45q-5.73,4.74-16.62,4.74H179.47V22.78h22.65q10.89,0,16.62,4.59t5.74,13.76Q224.48,50.45,218.74,55.17Z"/><path class="cls-1" d="M128,26.4,112.23,10.62a15.66,15.66,0,0,0-5.31-3.51,16,16,0,0,0-17.29,3.51L79.42,20.83,78,19.42a16,16,0,0,0-22.59,0L4.67,70.17a16,16,0,0,0,0,22.6l35.61,35.61a16,16,0,0,0,22.59,0l10.21-10.21,1.41,1.41a16,16,0,0,0,22.59,0L128,88.66V87h0V27.85h0Zm-72.08,95a6.16,6.16,0,0,1-8.69,0L11.62,85.82a6.14,6.14,0,0,1,0-8.69L62.37,26.37a6.16,6.16,0,0,1,8.69,0l16.5,16.51L75.5,54.94a16,16,0,0,0,0,22.59L87.65,89.69Zm34.21-8.8a6.14,6.14,0,0,1-7.68.8,5.47,5.47,0,0,1-1-.8L80,111.22,93.79,97.46V95.83h0V35.2l-7.42-7.42,3.19-3.19,7-7a6.16,6.16,0,0,1,8.69,0l16.51,16.51L109.71,46.14a16,16,0,0,0,0,22.59l12.16,12.16Z"/><path class="cls-1" d="M43.83,55.91a1.84,1.84,0,0,0-2.6,2.61L72.07,89.37a1.85,1.85,0,0,0,2.61-2.61Z"/><path class="cls-1" d="M36.88,62.87a1.84,1.84,0,1,0-2.6,2.61L65.12,96.32a1.84,1.84,0,1,0,2.61-2.6Z"/><path class="cls-1" d="M63.24,52.73a1.85,1.85,0,1,0,2.61-2.61L57.74,42a1.85,1.85,0,0,0-2.61,2.61Z"/><path class="cls-1" d="M29.93,69.82a1.85,1.85,0,0,0-2.61,2.61l30.85,30.84a1.84,1.84,0,1,0,2.61-2.6Z"/><path class="cls-1" d="M56.29,59.68a1.84,1.84,0,1,0,2.6-2.61L50.78,49a1.84,1.84,0,0,0-2.6,2.61Z"/><path class="cls-1" d="M23,76.77a1.85,1.85,0,1,0-2.61,2.61l30.85,30.84a1.84,1.84,0,1,0,2.61-2.6Z"/></g></svg>