<svg xmlns="http://www.w3.org/2000/svg" viewBox="0 0 128.01 127.1"><defs><style>.cls-1{fill:#278df9;}</style></defs><title>Artboard 9</title><g id="Logo"><path class="cls-1" d="M128,77.45v3.63h0v1.64L97.08,113.63a15.83,15.83,0,0,1-6.59,4l-.13-.4,35-39.75Z"/><polygon class="cls-1" points="128.01 67.18 128.01 77.45 125.33 77.45 124.4 74.22 121.89 65.42 128.01 67.18"/><polygon class="cls-1" points="128.01 35.8 128.01 67.18 120.14 59.31 116.66 47.14 128.01 35.8"/><polygon class="cls-1" points="128.01 22.59 128.01 35.8 123.96 35.74 117.44 41.6 123.26 28.8 126.09 22.59 128.01 22.59"/><path class="cls-1" d="M128,21.9v.69h-1.92l-19.8-19.8.63-1.63a15.66,15.66,0,0,1,5.31,3.51L128,20.45v1.46Z"/><polygon class="cls-1" points="128.01 35.8 116.66 47.14 115.99 44.79 117.44 41.6 123.96 35.74 128.01 35.8"/><polygon class="cls-1" points="128.01 67.18 121.89 65.42 120.14 59.31 128.01 67.18"/><path class="cls-1" d="M126.09,22.59l-2.83,6.21-1.48-.67L105.27,11.62a6.16,6.16,0,0,0-8.69,0l-7,7-2.35-2.35,19.08-13.5Z"/><path class="cls-1" d="M124.4,74.22l.93,3.23-35,39.75-8.82-8.81.91-.91a6.14,6.14,0,0,0,7.68-.8l31.74-31.74Z"/><path class="cls-1" d="M121.89,65.42l2.51,8.8-2.53.72L109.71,62.78a16,16,0,0,1,0-22.59l12.07-12.06,1.48.67-5.82,12.8-7.93,7.13,10.1,16Z"/><path class="cls-1" d="M120.14,59.31l1.75,6.11-2.28-.65-10.1-16,7.93-7.13L116,44.79l.67,2.35a6.16,6.16,0,0,0,0,8.69Z"/><path class="cls-1" d="M116.66,47.14l3.48,12.17-3.48-3.48A6.16,6.16,0,0,1,116.66,47.14Z"/><path class="cls-1" d="M106.92,1.16l-.63,1.63L87.21,16.29l2.35,2.35-3.19,3.19-7-6.95L89.63,4.67A16,16,0,0,1,106.92,1.16Z"/><path class="cls-1" d="M93.79,89.88v1.63L80,105.27l-2.35-2.36-7,7,2.35,2.35L62.87,122.43a16,16,0,0,1-22.59,0L4.67,86.82a16,16,0,0,1,0-22.6L55.42,13.47a16,16,0,0,1,22.59,0l1.41,1.41-3.26,3.26,7,7,3.25-3.26,7.42,7.42V89.87Zm-6.14-6.14L75.5,71.58A16,16,0,0,1,75.5,49L87.56,36.93,71.06,20.42a6.16,6.16,0,0,0-8.69,0L11.62,71.18a6.14,6.14,0,0,0,0,8.69l35.61,35.61a6.16,6.16,0,0,0,8.69,0Z"/><path class="cls-1" d="M90.36,117.2l.13.4a16,16,0,0,1-16-4l-1.41-1.41,7-7,1.41,1.41a5.47,5.47,0,0,0,1,.8l-.91.91Z"/><rect class="cls-1" x="78.97" y="15.07" width="4.61" height="9.83" transform="translate(9.74 63.43) rotate(-45.09)"/><rect class="cls-1" x="70.47" y="105.91" width="9.83" height="3.33" transform="translate(-53.93 84.53) rotate(-44.88)"/><path class="cls-1" d="M74.68,80.81a1.85,1.85,0,1,1-2.61,2.61L41.23,52.57A1.84,1.84,0,0,1,43.83,50Z"/><path class="cls-1" d="M67.73,87.77a1.84,1.84,0,1,1-2.61,2.6L34.28,59.53a1.85,1.85,0,0,1,0-2.61,1.83,1.83,0,0,1,2.6,0Z"/><path class="cls-1" d="M65.85,44.17a1.85,1.85,0,1,1-2.61,2.61l-8.11-8.11a1.85,1.85,0,0,1,2.61-2.61Z"/><path class="cls-1" d="M60.78,94.72a1.84,1.84,0,1,1-2.61,2.6L27.32,66.48a1.85,1.85,0,0,1,2.61-2.61Z"/><path class="cls-1" d="M58.89,51.12a1.84,1.84,0,1,1-2.6,2.61l-8.11-8.11A1.84,1.84,0,1,1,50.78,43Z"/><path class="cls-1" d="M53.83,101.67a1.84,1.84,0,1,1-2.61,2.6L20.37,73.43A1.85,1.85,0,0,1,23,70.82Z"/></g></svg>