<?xml version="1.0" encoding="utf-8"?>
<!-- Generator: Adobe Illustrator 22.0.1, SVG Export Plug-In . SVG Version: 6.00 Build 0)  -->
<svg version="1.1" id="toast_1_" xmlns="http://www.w3.org/2000/svg" xmlns:xlink="http://www.w3.org/1999/xlink" x="0px" y="0px"
	 viewBox="0 0 500 500" style="enable-background:new 0 0 500 500;" xml:space="preserve">
<style type="text/css">
	.st0{fill:#DBDBDB;}
	.st1{fill:#FFCA36;}
	.st2{fill:#BCBCBC;}
	.st3{fill:#E8B434;}
	.st4{fill:none;stroke:#000000;stroke-width:14.668;stroke-linecap:round;stroke-linejoin:round;}
</style>
<title>toast</title>
<desc>Created with Sketch.</desc>
<g id="Party">
	<g id="toast">
		<g transform="translate(7.000000, 25.000000)">
			<path id="Fill-1" class="st0" d="M104.9,288.2L104.9,288.2c-39-15.5-58.1-59.7-42.6-98.8l69.9-132l111.1,44.1l-39.6,144
				C188.1,284.6,143.9,303.7,104.9,288.2"/>
			<path id="Fill-3" class="st0" d="M381.5,288.2L381.5,288.2c39-15.5,58.1-59.7,42.6-98.8l-69.9-132l-111.1,44.1l39.6,144
				C298.3,284.6,342.5,303.7,381.5,288.2"/>
			<path id="Fill-5" class="st1" d="M77.4,160.9l-15.1,28.6c-15.5,39,3.6,83.3,42.6,98.8c39,15.5,83.2-3.6,98.7-42.6l23.3-84.7H77.4
				z"/>
			<path id="Fill-7" class="st1" d="M77.4,160.9l-15.1,28.6c-15.5,39,3.6,83.3,42.6,98.8c39,15.5,83.2-3.6,98.7-42.6l23.3-84.7H77.4
				z"/>
			<path id="Fill-9" class="st2" d="M221.7,93L206,150l-23.3,84.7c-1.5,3.7-3.2,7.1-5.1,10.4c-1.3,2.2-2.7,4.3-4.1,6.3
				c-0.7,1-1.5,2-2.3,3c-7.8,9.7-17.8,17.2-29,22c-3.4,1.4-6.8,2.7-10.3,3.6c-2.4,0.6-4.7,1.2-7.2,1.6c-7.2,1.2-14.7,1.4-22.2,0.5
				c-4.9-0.6-9.9-1.8-14.8-3.4c5.2,3.8,10.9,7,17.2,9.5c39,15.5,83.2-3.6,98.7-42.6l39.6-144L221.7,93z"/>
			<path id="Fill-11" class="st3" d="M226.9,160.9H203l-20.3,73.8c-1.5,3.7-3.2,7.1-5.1,10.4c-1.3,2.2-2.7,4.3-4.1,6.3
				c-0.7,1-1.5,2-2.3,3c-7.8,9.7-17.8,17.2-29,22c-3.4,1.4-6.8,2.7-10.3,3.6c-2.4,0.6-4.7,1.2-7.2,1.6c-7.2,1.2-14.7,1.4-22.2,0.5
				c-4.9-0.6-9.9-1.8-14.8-3.4v0c0.4,0.3,0.8,0.6,1.2,0.9c0.5,0.3,1,0.7,1.4,1c0.4,0.3,0.8,0.5,1.2,0.8c0.8,0.5,1.6,1,2.4,1.5
				c0.4,0.2,0.7,0.4,1.1,0.6c0.7,0.4,1.4,0.8,2.2,1.2c0.2,0.1,0.5,0.3,0.7,0.4c1,0.5,1.9,1,2.9,1.4c0.3,0.1,0.5,0.2,0.8,0.4
				c1,0.5,2.1,0.9,3.2,1.4c12.2,4.8,24.9,6.3,37.1,4.8c3.7-0.4,7.3-1.1,10.8-2.1c17.6-4.8,33.4-15.8,43.8-31.7
				c2.8-4.2,5.2-8.8,7.1-13.7L226.9,160.9z"/>
			<path id="Fill-13" class="st2" d="M424.2,189.5l-69.9-132l-21.6,8.6l67.8,128c0.5,1.2,0.9,2.4,1.4,3.7c2.9,8.6,4.2,17.4,4,26
				c-0.1,2.5-0.2,4.9-0.5,7.4c-0.4,3.7-1.1,7.3-2.1,10.8c-1.6,5.9-3.9,11.6-6.8,16.9c-0.6,1.1-1.2,2.1-1.8,3.2
				c-1.3,2.1-2.7,4.1-4.1,6c-2.9,3.9-6.3,7.5-10,10.8c-4.6,4.1-9.8,7.7-15.5,10.7c-2.3,1.2-4.6,2.3-7.1,3.2c-0.7,0.3-1.4,0.5-2,0.8
				c8.6-0.3,17.3-2,25.8-5.3C420.6,272.7,439.7,228.5,424.2,189.5"/>
			<path id="Fill-15" class="st1" d="M409,160.9l15.1,28.6c15.5,39-3.6,83.3-42.6,98.8c-39,15.5-83.2-3.6-98.7-42.6l-23.3-84.7H409z
				"/>
			<path id="Fill-17" class="st3" d="M426.7,196.8c-0.7-2.5-1.5-4.9-2.5-7.4L409,160.9h-26.2l17.6,33.2c0.5,1.2,0.9,2.4,1.4,3.7
				c2.9,8.6,4.2,17.4,4,26c-0.1,2.5-0.2,4.9-0.5,7.4c-0.4,3.7-1.1,7.3-2.1,10.8c-1.6,5.9-3.9,11.6-6.8,16.9
				c-0.6,1.1-1.2,2.1-1.8,3.2c-1.3,2.1-2.7,4.1-4.1,6c-2.9,3.9-6.3,7.5-10,10.8c-4.6,4.1-9.8,7.7-15.5,10.7
				c-2.3,1.2-4.6,2.3-7.1,3.2c-0.7,0.3-1.4,0.5-2,0.8c1.1,0,2.2-0.1,3.3-0.2c0.5,0,1-0.1,1.6-0.1c0.6-0.1,1.3-0.1,1.9-0.2
				c0.5-0.1,1.1-0.1,1.6-0.2c0.6-0.1,1.3-0.2,1.9-0.3c0.5-0.1,1.1-0.2,1.6-0.3c0.7-0.1,1.3-0.3,2-0.4c0.5-0.1,1-0.2,1.5-0.3
				c0.7-0.2,1.4-0.3,2.1-0.5c0.5-0.1,1-0.3,1.4-0.4c0.8-0.2,1.5-0.5,2.3-0.7c0.4-0.1,0.8-0.2,1.2-0.4c1.1-0.4,2.3-0.8,3.4-1.3
				c0,0,0,0,0,0c2.4-1,4.8-2,7.1-3.2C420.5,268.4,436.5,231.5,426.7,196.8"/>
			<path id="Stroke-19" class="st4" d="M104.9,288.2L104.9,288.2c-39-15.5-58.1-59.7-42.6-98.8l69.9-132l111.1,44.1l-39.6,144
				C188.1,284.6,143.9,303.7,104.9,288.2z"/>
			<path id="Stroke-21" class="st4" d="M104.9,288.2L48.4,430.7"/>
			<path id="Stroke-23" class="st4" d="M0.5,411.7l95.8,38"/>
			<path id="Stroke-25" class="st4" d="M77.4,160.9l-15.1,28.6c-15.5,39,3.6,83.3,42.6,98.8c39,15.5,83.2-3.6,98.7-42.6l23.3-84.7
				H77.4z"/>
			<path id="Stroke-27" class="st4" d="M381.5,288.2L381.5,288.2c39-15.5,58.1-59.7,42.6-98.8l-69.9-132l-111.1,44.1l39.6,144
				C298.3,284.6,342.5,303.7,381.5,288.2z"/>
			<path id="Stroke-29" class="st4" d="M381.5,288.2l56.5,142.5"/>
			<path id="Stroke-31" class="st4" d="M485.9,411.7l-95.8,38"/>
			<path id="Stroke-33" class="st4" d="M409,160.9l15.1,28.6c15.5,39-3.6,83.3-42.6,98.8c-39,15.5-83.2-3.6-98.7-42.6l-23.3-84.7
				H409z"/>
			<path id="Stroke-35" class="st4" d="M243.2,41V0.5"/>
			<path id="Stroke-37" class="st4" d="M187.9,27.3l25.5,24.4"/>
			<path id="Stroke-39" class="st4" d="M298.6,27.3L273,51.6"/>
		</g>
	</g>
</g>
</svg>
